<svg xmlns="http://www.w3.org/2000/svg" viewBox="0 0 220 560" width="220" height="560" role="img" aria-label="Jade dragon and lotus ornament">
  <defs>
    <linearGradient id="jade" x1="0" y1="0" x2="1" y2="1">
      <stop offset="0" stop-color="#b8dccb"/>
      <stop offset=".45" stop-color="#79b69c"/>
      <stop offset="1" stop-color="#3f826b"/>
    </linearGradient>
    <linearGradient id="belly" x1="0" y1="0" x2="0" y2="1">
      <stop offset="0" stop-color="#fff4d5"/>
      <stop offset="1" stop-color="#e8d4a7"/>
    </linearGradient>
    <linearGradient id="gold" x1="0" y1="0" x2="1" y2="1">
      <stop offset="0" stop-color="#ffe6a6"/>
      <stop offset=".55" stop-color="#d9b25f"/>
      <stop offset="1" stop-color="#a8752f"/>
    </linearGradient>
    <linearGradient id="pink" x1="0" y1="0" x2="0" y2="1">
      <stop offset="0" stop-color="#fff4ef"/>
      <stop offset=".52" stop-color="#f6c3b7"/>
      <stop offset="1" stop-color="#dd8e82"/>
    </linearGradient>
    <filter id="shadow" x="-40%" y="-30%" width="180%" height="170%">
      <feDropShadow dx="0" dy="5" stdDeviation="5" flood-color="#23493c" flood-opacity=".14"/>
    </filter>
  </defs>

  <g filter="url(#shadow)">
    <path d="M170 30
             C145 15 118 28 112 52
             C104 81 127 99 151 88
             C174 77 169 57 153 51
             C133 43 114 58 111 78
             C106 110 142 128 166 113
             C185 101 184 79 170 68"
          fill="none" stroke="url(#jade)" stroke-width="28" stroke-linecap="round"/>
    <path d="M170 30
             C145 15 118 28 112 52
             C104 81 127 99 151 88
             C174 77 169 57 153 51
             C133 43 114 58 111 78
             C106 110 142 128 166 113"
          fill="none" stroke="url(#belly)" stroke-width="9" stroke-linecap="round" opacity=".95"/>

    <path d="M166 112
             C142 128 116 147 117 178
             C118 208 145 222 166 207
             C188 192 183 160 158 153
             C131 145 107 166 111 196
             C115 229 151 247 174 231
             C193 217 189 190 169 179"
          fill="none" stroke="url(#jade)" stroke-width="28" stroke-linecap="round"/>
    <path d="M166 112
             C142 128 116 147 117 178
             C118 208 145 222 166 207
             C188 192 183 160 158 153
             C131 145 107 166 111 196
             C115 229 151 247 174 231"
          fill="none" stroke="url(#belly)" stroke-width="9" stroke-linecap="round"/>

    <path d="M174 231
             C148 248 121 274 122 306
             C123 337 151 351 173 335
             C195 319 188 287 162 281
             C135 274 110 295 114 324
             C119 358 154 375 177 359
             C197 345 193 318 171 306"
          fill="none" stroke="url(#jade)" stroke-width="28" stroke-linecap="round"/>
    <path d="M174 231
             C148 248 121 274 122 306
             C123 337 151 351 173 335
             C195 319 188 287 162 281
             C135 274 110 295 114 324
             C119 358 154 375 177 359"
          fill="none" stroke="url(#belly)" stroke-width="9" stroke-linecap="round"/>

    <g transform="translate(164 25)">
      <path d="M-8 4c8-16 18-26 30-29-2 7-1 13 3 18 7-6 15-9 23-8-6 7-9 14-7 20 7-1 13 1 18 5-8 3-14 8-17 15"
            fill="none" stroke="url(#gold)" stroke-width="6" stroke-linecap="round"/>
      <path d="M-1 8c7-10 16-15 27-13 10 2 17 10 19 20-8-4-15-3-20 1 5 4 7 9 7 14-10-3-19-1-26 4-8-5-11-14-7-26z"
            fill="url(#jade)" stroke="#3d7764" stroke-width="2"/>
      <path d="M-3 12c-12 4-21 12-28 24M2 18c-11 8-18 17-23 28" fill="none" stroke="url(#gold)" stroke-width="2.2" stroke-linecap="round"/>
      <circle cx="23" cy="6" r="2.7" fill="#214238"/>
      <path d="M43 17c12 1 21 5 27 12M41 22c12 4 20 9 25 16" fill="none" stroke="#c39245" stroke-width="1.5" stroke-linecap="round"/>
    </g>

    <g fill="none" stroke="#e8cf8f" stroke-width="4" stroke-linecap="round" opacity=".92">
      <path d="M52 105c12-11 23-11 32 0 9 11 20 11 31 0"/>
      <path d="M45 225c13-12 25-12 35 0 10 12 21 12 32 0"/>
      <path d="M46 390c13-12 25-12 35 0 10 12 21 12 33 0"/>
    </g>

    <g transform="translate(110 470)">
      <ellipse cx="0" cy="34" rx="56" ry="15" fill="#6f9570" opacity=".42"/>
      <path d="M-4 24C-41 18-53 0-47-21-28-17-12-5-3 13-5-8 1-28 15-43 26-29 27-10 18 11 31-4 48-10 65-7 61 12 46 24 20 28"
            fill="#729a73" opacity=".9"/>
      <path d="M0 14C-27 2-29-20-18-39-2-31 7-17 5 1 12-23 29-37 47-39 52-18 41-2 22 12 41 2 60 3 75 13 63 31 39 36 12 28"
            fill="url(#pink)" stroke="#dc8c7f" stroke-width="1.6"/>
      <ellipse cx="11" cy="17" rx="11" ry="7" fill="#e3bb64"/>
      <g fill="#9b6c2e">
        <circle cx="6" cy="15" r="1.3"/><circle cx="12" cy="14" r="1.3"/><circle cx="16" cy="18" r="1.3"/><circle cx="10" cy="20" r="1.3"/>
      </g>
    </g>

    <path d="M178 360c-5 28-17 48-38 62-20 13-42 20-65 22" fill="none" stroke="url(#gold)" stroke-width="5" stroke-linecap="round"/>
    <path d="M88 430c-28 10-49 26-64 48" fill="none" stroke="url(#gold)" stroke-width="3" stroke-linecap="round" opacity=".85"/>
    <g fill="#d9b25f">
      <circle cx="194" cy="90" r="4"/><circle cx="201" cy="146" r="3.4"/><circle cx="193" cy="255" r="4"/>
      <circle cx="199" cy="410" r="3.5"/><circle cx="46" cy="445" r="3.2"/>
    </g>
  </g>
</svg>